<svg width="103" height="34" viewBox="0 0 103 34" fill="none" xmlns="http://www.w3.org/2000/svg">
<g clip-path="url(#clip0_1_210)">
<path d="M23.2554 31.9249L29.4193 32.0526C27.2949 31.3183 25.2349 30.4244 23.2554 29.3709V31.9249ZM32.5415 31.0789V31.9249L29.4193 32.0526C35.2935 34.0479 40.6688 34.3193 44.6601 33.2019C41.4574 33.2338 37.2892 32.7869 32.5415 31.0789ZM98.3488 12.6901C100.908 12.6901 103 10.631 103 8.077C103 5.52301 100.924 4.1662 98.3488 4.1662C95.7899 4.1662 93.6977 5.53897 93.6977 8.077C93.6977 10.615 95.7738 12.6901 98.3488 12.6901ZM93.6816 31.9249H103V14.2864H93.6816V31.9249ZM81.8206 31.9249H91.1388V0.750239L81.8206 5.10799V31.9249ZM76.8315 12.8657C73.9024 9.96057 68.7202 10.1362 68.7202 10.1362C68.7202 10.1362 63.522 9.96057 60.609 12.8657C57.6799 15.7709 57.9052 18.277 57.9052 21.262C57.9052 24.247 57.6799 26.7371 60.609 29.6423C63.5381 32.5474 68.7202 32.3718 68.7202 32.3718C68.7202 32.3718 73.9185 32.5474 76.8315 29.6423C79.7606 26.7371 79.5352 24.247 79.5352 21.262C79.5192 18.261 79.7445 15.7549 76.8315 12.8657ZM70.4262 24.3427C70.4262 24.9174 70.1365 26.338 68.7042 26.338C67.2718 26.338 66.9821 24.9174 66.9821 24.3427V17.8939C66.9821 16.5052 68.157 16.154 68.7042 16.154C69.2513 16.154 70.4262 16.4892 70.4262 17.8939V24.3427ZM53.3346 12.8657C50.4056 9.96057 45.2234 10.1362 45.2234 10.1362C45.2234 10.1362 40.0412 9.96057 37.1121 12.8657C36.8063 13.169 36.5167 13.4883 36.2592 13.8235C30.1113 9.0986 24.5912 6.40094 19.8274 4.07043V0.766202L16.2063 2.45822C7.45135 -1.06948 1.88291 -0.446944 0.547129 2.47418C0.547129 2.47418 -3.46021 7.70986 10.4931 20.1606V31.9249H19.8113V27.3596C18.7653 26.6892 17.7192 25.9709 16.6892 25.1887C14.3073 23.4009 12.2795 21.7409 10.5092 20.1765V15.2282C12.6174 17.5747 15.4178 20.2404 19.1032 23.2573L19.8274 23.8319V19.0751C19.8274 17.9737 20.101 16.17 21.5656 16.17C23.0301 16.17 23.2715 17.2714 23.2715 18.5643V26.338C26.1684 28.2855 29.2745 29.8657 32.5576 31.0629V16.0742C32.5576 13.0892 30.401 10.1042 26.0235 10.1042C23.4807 10.0883 21.1149 11.4132 19.8274 13.6V4.9324C26.5707 8.26855 33.3301 12.3549 35.9051 14.2385C34.2635 16.569 34.4084 18.7239 34.4084 21.2141C34.4084 24.1991 34.1831 26.6892 37.1121 29.5944C40.0412 32.4995 45.2234 32.324 45.2234 32.324C45.2234 32.324 50.4217 32.4995 53.3346 29.5944C56.2637 26.6892 56.0223 24.1991 56.0223 21.2141C56.0223 18.261 56.2637 15.7549 53.3346 12.8657ZM10.4931 5.10799V15.2122C2.65541 6.51268 4.2326 3.08076 4.82807 2.58592C7.00072 0.766201 10.8632 1.30892 15.1924 2.92113L10.4931 5.10799ZM46.9454 24.3427C46.9454 24.9174 46.6557 26.338 45.2234 26.338C43.791 26.338 43.5013 24.9174 43.5013 24.3427V17.8939C43.5013 16.5052 44.6762 16.154 45.2234 16.154C45.7706 16.154 46.9454 16.4892 46.9454 17.8939V24.3427Z" fill="#737373"/>
</g>
<defs>
<clipPath id="clip0_1_210">
<rect width="103" height="34" fill="white"/>
</clipPath>
</defs>
</svg>
