<svg width="103" height="42" viewBox="0 0 103 42" fill="none" xmlns="http://www.w3.org/2000/svg">
<g clip-path="url(#clip0_1_219)">
<path d="M26.5555 3.29318L19.5869 4.75682L19.5547 27.4114C19.5547 31.5955 22.7413 34.3 26.9739 34.3C29.3236 34.3 31.0457 33.8705 31.9952 33.3614V27.9841C31.0778 28.35 26.5716 29.6546 26.5716 25.4864V15.4318H31.9952V9.41818H26.5716L26.5555 3.29318ZM40.895 11.5023L40.4605 9.41818H34.2805V33.7909H41.41V17.3886C43.0999 15.1932 45.9485 15.6227 46.8658 15.9091V9.41818C45.9002 9.08409 42.5688 8.46364 40.895 11.5023ZM55.7496 0L48.5717 1.51136V7.27045L55.7496 5.75909V0ZM7.2269 16.5932C7.2269 15.4955 8.16034 15.0659 9.65706 15.05C11.8297 15.05 14.5978 15.7023 16.7705 16.8636V10.2136C14.4047 9.29091 12.0389 8.925 9.67315 8.925C3.8794 8.925 0.0168991 11.9159 0.0168991 16.9114C0.0168991 24.7386 10.8802 23.4659 10.8802 26.8386C10.8802 28.1432 9.73752 28.5727 8.14424 28.5727C5.77846 28.5727 2.72065 27.6023 0.32268 26.3136V32.6773C2.97815 33.8068 5.66581 34.2841 8.12815 34.2841C14.0667 34.2841 18.1546 31.7705 18.1546 26.6796C18.1546 18.2636 7.2269 19.775 7.2269 16.5932ZM103.001 21.8909C103.001 14.6523 99.4602 8.94091 92.6686 8.94091C85.8771 8.94091 81.741 14.6523 81.741 21.8432C81.741 30.3545 86.6174 34.2841 93.5699 34.2841C96.9818 34.2841 99.5407 33.5205 101.488 32.4545V27.1409C99.5407 28.1114 97.3036 28.7 94.4711 28.7C91.6869 28.7 89.2407 27.7295 88.9188 24.4205H102.904C102.936 24.0545 103.001 22.575 103.001 21.8909ZM88.8544 19.2182C88.8544 16.0364 90.8339 14.7 92.6204 14.7C94.3746 14.7 96.2414 16.0364 96.2414 19.2182H88.8544ZM70.6846 8.94091C67.8843 8.94091 66.0817 10.2455 65.0839 11.1523L64.7138 9.40227H58.4211V41.9841L65.5667 40.4886L65.5828 32.5023C66.6128 33.25 68.1417 34.2841 70.6363 34.2841C75.7541 34.2841 80.4213 30.5932 80.4213 21.6205C80.4374 13.4114 75.7058 8.94091 70.6846 8.94091ZM68.9786 28.4296C67.3049 28.4296 66.3071 27.825 65.615 27.0932L65.5667 16.5932C66.3071 15.7818 67.3371 15.1932 68.9786 15.1932C71.5858 15.1932 73.3883 18.0886 73.3883 21.7795C73.4044 25.5818 71.6341 28.4296 68.9786 28.4296ZM48.5878 33.7909H55.7657V9.41818H48.5878V33.7909Z" fill="#737373"/>
</g>
<defs>
<clipPath id="clip0_1_219">
<rect width="103" height="42" fill="white"/>
</clipPath>
</defs>
</svg>
