<svg width="103" height="24" viewBox="0 0 103 24" fill="none" xmlns="http://www.w3.org/2000/svg">
<path d="M-4.29153e-06 2.08794H3.888V18.8879H-4.29153e-06V2.08794ZM15.559 5.78394C17.159 5.78394 18.447 6.26394 19.423 7.22394C20.415 8.18394 20.911 9.60794 20.911 11.4959V18.8879H17.167V12.0719C17.167 11.0479 16.943 10.2879 16.495 9.79194C16.047 9.27994 15.399 9.02394 14.551 9.02394C13.607 9.02394 12.855 9.31994 12.295 9.91194C11.735 10.4879 11.455 11.3519 11.455 12.5039V18.8879H7.711V5.97594H11.287V7.48794C11.783 6.94394 12.399 6.52794 13.135 6.23994C13.871 5.93594 14.679 5.78394 15.559 5.78394ZM37.6974 1.07994V18.8879H34.1214V17.3999C33.1934 18.5199 31.8494 19.0799 30.0894 19.0799C28.8734 19.0799 27.7694 18.8079 26.7774 18.2639C25.8014 17.7199 25.0334 16.9439 24.4734 15.9359C23.9134 14.9279 23.6334 13.7599 23.6334 12.4319C23.6334 11.1039 23.9134 9.93594 24.4734 8.92794C25.0334 7.91994 25.8014 7.14394 26.7774 6.59994C27.7694 6.05594 28.8734 5.78394 30.0894 5.78394C31.7374 5.78394 33.0254 6.30394 33.9534 7.34394V1.07994H37.6974ZM30.7374 16.0079C31.6814 16.0079 32.4654 15.6879 33.0894 15.0479C33.7134 14.3919 34.0254 13.5199 34.0254 12.4319C34.0254 11.3439 33.7134 10.4799 33.0894 9.83994C32.4654 9.18394 31.6814 8.85594 30.7374 8.85594C29.7774 8.85594 28.9854 9.18394 28.3614 9.83994C27.7374 10.4799 27.4254 11.3439 27.4254 12.4319C27.4254 13.5199 27.7374 14.3919 28.3614 15.0479C28.9854 15.6879 29.7774 16.0079 30.7374 16.0079ZM41.2626 5.97594H45.0066V18.8879H41.2626V5.97594ZM43.1346 4.17594C42.4466 4.17594 41.8866 3.97594 41.4546 3.57594C41.0226 3.17594 40.8066 2.67994 40.8066 2.08794C40.8066 1.49594 41.0226 0.999938 41.4546 0.599939C41.8866 0.199938 42.4466 -6.19888e-05 43.1346 -6.19888e-05C43.8226 -6.19888e-05 44.3826 0.191938 44.8146 0.575939C45.2466 0.959939 45.4626 1.43994 45.4626 2.01594C45.4626 2.63994 45.2466 3.15994 44.8146 3.57594C44.3826 3.97594 43.8226 4.17594 43.1346 4.17594ZM54.8213 19.0799C53.4453 19.0799 52.2053 18.7999 51.1013 18.2399C50.0133 17.6639 49.1573 16.8719 48.5333 15.8639C47.9253 14.8559 47.6213 13.7119 47.6213 12.4319C47.6213 11.1519 47.9253 10.0079 48.5333 8.99994C49.1573 7.99194 50.0133 7.20794 51.1013 6.64794C52.2053 6.07194 53.4453 5.78394 54.8213 5.78394C56.1813 5.78394 57.3653 6.07194 58.3733 6.64794C59.3973 7.20794 60.1413 8.01594 60.6053 9.07194L57.7013 10.6319C57.0293 9.44794 56.0613 8.85594 54.7973 8.85594C53.8213 8.85594 53.0133 9.17594 52.3733 9.81594C51.7333 10.4559 51.4133 11.3279 51.4133 12.4319C51.4133 13.5359 51.7333 14.4079 52.3733 15.0479C53.0133 15.6879 53.8213 16.0079 54.7973 16.0079C56.0773 16.0079 57.0453 15.4159 57.7013 14.2319L60.6053 15.8159C60.1413 16.8399 59.3973 17.6399 58.3733 18.2159C57.3653 18.7919 56.1813 19.0799 54.8213 19.0799ZM68.8409 19.0799C67.4809 19.0799 66.2569 18.7999 65.1689 18.2399C64.0969 17.6639 63.2569 16.8719 62.6489 15.8639C62.0409 14.8559 61.7369 13.7119 61.7369 12.4319C61.7369 11.1519 62.0409 10.0079 62.6489 8.99994C63.2569 7.99194 64.0969 7.20794 65.1689 6.64794C66.2569 6.07194 67.4809 5.78394 68.8409 5.78394C70.2009 5.78394 71.4169 6.07194 72.4889 6.64794C73.5609 7.20794 74.4009 7.99194 75.0089 8.99994C75.6169 10.0079 75.9209 11.1519 75.9209 12.4319C75.9209 13.7119 75.6169 14.8559 75.0089 15.8639C74.4009 16.8719 73.5609 17.6639 72.4889 18.2399C71.4169 18.7999 70.2009 19.0799 68.8409 19.0799ZM68.8409 16.0079C69.8009 16.0079 70.5849 15.6879 71.1929 15.0479C71.8169 14.3919 72.1289 13.5199 72.1289 12.4319C72.1289 11.3439 71.8169 10.4799 71.1929 9.83994C70.5849 9.18394 69.8009 8.85594 68.8409 8.85594C67.8809 8.85594 67.0889 9.18394 66.4649 9.83994C65.8409 10.4799 65.5289 11.3439 65.5289 12.4319C65.5289 13.5199 65.8409 14.3919 66.4649 15.0479C67.0889 15.6879 67.8809 16.0079 68.8409 16.0079ZM82.0995 7.67994C82.5475 7.05594 83.1475 6.58394 83.8995 6.26394C84.6675 5.94394 85.5475 5.78394 86.5395 5.78394V9.23994C86.1235 9.20794 85.8435 9.19194 85.6995 9.19194C84.6275 9.19194 83.7875 9.49594 83.1795 10.1039C82.5715 10.6959 82.2675 11.5919 82.2675 12.7919V18.8879H78.5235V5.97594H82.0995V7.67994ZM96.4977 5.78394C97.6977 5.78394 98.7857 6.06394 99.7617 6.62394C100.754 7.16794 101.53 7.94394 102.09 8.95194C102.65 9.94394 102.93 11.1039 102.93 12.4319C102.93 13.7599 102.65 14.9279 102.09 15.9359C101.53 16.9279 100.754 17.7039 99.7617 18.2639C98.7857 18.8079 97.6977 19.0799 96.4977 19.0799C94.8497 19.0799 93.5537 18.5599 92.6097 17.5199V23.5439H88.8657V5.97594H92.4417V7.46394C93.3697 6.34394 94.7217 5.78394 96.4977 5.78394ZM95.8497 16.0079C96.8097 16.0079 97.5937 15.6879 98.2017 15.0479C98.8257 14.3919 99.1377 13.5199 99.1377 12.4319C99.1377 11.3439 98.8257 10.4799 98.2017 9.83994C97.5937 9.18394 96.8097 8.85594 95.8497 8.85594C94.8897 8.85594 94.0977 9.18394 93.4737 9.83994C92.8657 10.4799 92.5617 11.3439 92.5617 12.4319C92.5617 13.5199 92.8657 14.3919 93.4737 15.0479C94.0977 15.6879 94.8897 16.0079 95.8497 16.0079Z" fill="#252B42"/>
</svg>
